<?xml version="1.0" encoding="utf-8"?>
<!-- Generator: Adobe Illustrator 27.8.0, SVG Export Plug-In . SVG Version: 6.00 Build 0)  -->
<svg version="1.1" xmlns="http://www.w3.org/2000/svg" xmlns:xlink="http://www.w3.org/1999/xlink" x="0px" y="0px"
	 viewBox="0 0 800 850" style="enable-background:new 0 0 800 850;" xml:space="preserve">
<style type="text/css">
	.st0{fill:#FFFFFF;}
	.st1{fill:#5251A2;}
	.st2{fill:#929395;}
	.st3{fill:#00ACC7;}
	.st4{fill:#EE3441;}
	.st5{fill:#D32F92;}
	.st6{fill:#FAA41A;}
	.st7{fill:#55565A;}
</style>
<g id="White">
	<rect x="413.9" y="104" class="st0" width="204.4" height="134.3"/>
	<path class="st0" d="M180.7,205.3l9.7,5.1c0.8,0.4,1.8,0.4,2.6-0.2c0.8-0.6,1.1-1.4,1-2.4l-1.8-10.8l0.9-2.8l7.8-7.6
		c0.7-0.7,0.9-1.6,0.6-2.5c-0.3-0.9-1-1.5-2-1.7l-10.8-1.6l-2.4-1.7l-4.8-9.8c-0.4-0.8-1.2-1.4-2.2-1.4s-1.8,0.5-2.2,1.4l-4.8,9.8
		l-2.4,1.7l-10.8,1.6c-0.9,0.1-1.7,0.8-2,1.7c-0.3,0.9-0.1,1.8,0.6,2.5l7.8,7.6l0.9,2.8l-1.8,10.8c-0.2,0.9,0.2,1.8,1,2.4
		c0.8,0.5,1.7,0.6,2.6,0.2l9.7-5.1H180.7z"/>
	<ellipse class="st0" cx="329.5" cy="160.8" rx="9.5" ry="10"/>
	<path class="st0" d="M434,294.4c-3.1,0-6,1.2-8.2,3.4c-2.2,2.2-3.4,5.1-3.4,8.2c0,3.1,1.2,6,3.4,8.2l22.5,22.5l22.5-22.5
		c2.2-2.2,3.4-5.1,3.4-8.2c0-3.1-1.2-6-3.4-8.2l0,0c-2.2-2.2-5.1-3.4-8.2-3.4s-6,1.2-8.2,3.4l-6.2,6.2l-6.2-6.2
		C440,295.6,437.1,294.4,434,294.4z"/>
	<path class="st0" d="M589.6,306.9l9.7,5.1c0.8,0.4,1.8,0.4,2.6-0.2c0.8-0.6,1.1-1.4,1-2.4l-1.8-10.8l0.9-2.8l7.8-7.6
		c0.7-0.7,0.9-1.6,0.6-2.5c-0.3-0.9-1-1.5-2-1.7l-10.8-1.6l-2.4-1.7l-4.8-9.8c-0.4-0.8-1.2-1.4-2.2-1.4c-0.9,0-1.8,0.5-2.2,1.4
		l-4.8,9.8l-2.4,1.7l-10.8,1.6c-0.9,0.1-1.7,0.8-2,1.7c-0.3,0.9-0.1,1.8,0.6,2.5l7.8,7.6l0.9,2.8l-1.8,10.8c-0.2,0.9,0.2,1.8,1,2.4
		c0.8,0.5,1.7,0.6,2.6,0.2l9.7-5.1H589.6z"/>
	<path class="st0" d="M742.2,294.5l2.2,2.4c3.1-3.7,5.1-8,6-12.3c1.1-5.9-0.2-11.2-3.8-15c-3.5-3.8-8.8-5.5-14.7-4.7
		c-4.3,0.5-8.7,2.3-12.6,5.2l4.4,4.7c2.9-1.9,5.9-3.2,9-3.5c0.6-0.1,1.3-0.1,1.9-0.1c3.1,0,5.6,1,7.4,2.9l0,0
		c2.1,2.3,2.9,5.6,2.1,9.5c-0.6,3-2,6-4.1,8.7l-34-36.3c-2.2-2.3-5.1-3.7-8.3-3.8c-3.2-0.1-6.2,1-8.5,3.2l-4.1,3.9
		c-2.3,2.2-3.7,5.1-3.8,8.3c-0.1,2.2,0.5,4.4,1.5,6.2l-41.6,63.7l2.9-2.7l-13.7,12.9c-2.4,2.2-3.8,5.3-3.9,8.6
		c-0.1,3.3,1.1,6.4,3.3,8.8l14,15c2.3,2.4,5.3,3.7,8.3,3.8l36,38.4c1.8,1.9,4.2,3,6.8,3.1c0.1,0,0.2,0,0.3,0c2.5,0,4.9-0.9,6.7-2.6
		l3.1-2.9c3.9-3.7,4.1-9.9,0.4-13.8l-33.4-35.6l66.1-37.3c1.8,1.2,3.9,1.9,6.1,1.9c0.1,0,0.3,0,0.4,0c3,0,5.9-1.1,8.1-3.2l4.1-3.9
		l0,0c4.8-4.5,5-12,0.5-16.8L742.2,294.5z"/>
	<ellipse transform="matrix(0.7563 -0.6542 0.6542 0.7563 -7.131 547.9213)" class="st0" cx="732" cy="283.5" rx="14.5" ry="12.2"/>
	<path class="st0" d="M332.1,318.6c-0.1,0.1-0.2,0.3-0.2,0.4l-17.1,30.4h-8.6v-28.9c6.3-1.5,11-7.1,11-13.8h-6.4
		c0,4.3-3.5,7.8-7.8,7.8c-4.3,0-7.8-3.5-7.8-7.8h-6.4c0,6.7,4.7,12.4,11,13.8v28.9h-9.2L274.3,319c-0.1-0.1-0.1-0.3-0.2-0.4
		c-3.6-5.6-5.6-12.1-5.6-18.8c0-19.1,15.5-34.6,34.6-34.6c19.1,0,34.6,15.5,34.6,34.6C337.7,306.5,335.8,313,332.1,318.6z"/>
	<path class="st0" d="M313.1,370.2h-19.7c-2.1,0-3.7-1.7-3.7-3.7v0c0-2.1,1.7-3.7,3.7-3.7h19.7c2.1,0,3.7,1.7,3.7,3.7v0
		C316.9,368.5,315.2,370.2,313.1,370.2z"/>
	<path class="st0" d="M308.6,389h-11.3c-1.7,0-3-1.4-3-3l0,0c0-1.7,1.4-3,3-3h11.3c1.7,0,3,1.4,3,3l0,0
		C311.6,387.7,310.3,389,308.6,389z"/>
	<path class="st0" d="M486.8,558.4c0,4.3-3.5,7.7-7.7,7.7h-1.2c-9,0-16.4-7.4-16.4-16.4v-24c0-9,7.4-16.4,16.4-16.4h1.2
		c4.3,0,7.7,3.5,7.7,7.7V558.4z"/>
	<path class="st0" d="M712.4,549.7c0,9-7.4,16.4-16.4,16.4h-1.2c-4.3,0-7.7-3.5-7.7-7.7V517c0-4.3,3.5-7.7,7.7-7.7h1.2
		c9,0,16.4,7.4,16.4,16.4V549.7z"/>
	<path class="st0" d="M548.4,453.3c11.7-6.1,25-9.3,38.6-9.3s26.9,3.2,38.6,9.3c21.8,11.3,35.9,31.7,39,54.2
		c-9.9,5.5-28.3,13.1-51.7,10.7c-26.1-2.8-43.6-16.4-51.7-24.3l-4.4-4.3l-0.9,6.1c-0.8,5-3.8,17.5-15.3,27.1
		c-11.2,9.3-23.9,10.1-29.8,9.9C503.3,501.1,518.6,468.8,548.4,453.3z"/>
	<path class="st0" d="M641.7,615.2c-6.2,23.5-28.7,39.9-54.7,39.9s-48.5-16.4-54.7-39.9L512.2,539c0,0,0,0,0.1,0
		c7.8,0,20.5-1.8,32.2-11.4c9.9-8.2,14.4-18.4,16.3-25.4c9.9,8.5,27.2,19.8,51.4,22.3c23.3,2.5,42-4.4,53-10.1
		c0.3,6.7-0.5,13.6-2.3,20.4L645,602.4c-15.7,10.9-34.6,17.6-55,18.2c-1.4-4.3-5.4-7.4-10.2-7.4c-5.9,0-10.7,4.8-10.7,10.7
		s4.8,10.7,10.7,10.7c4.9,0,9-3.3,10.3-7.7c19.1-0.6,37.1-6.1,52.5-15.4L641.7,615.2z"/>
	<polygon class="st0" points="428.2,732.4 426.6,743.7 436,737.3 479.2,668.2 471.3,663.3 	"/>
	
		<ellipse transform="matrix(0.5975 -0.8018 0.8018 0.5975 -332.5372 649.9221)" class="st0" cx="481.2" cy="656.2" rx="4.8" ry="4.2"/>
	<polygon class="st0" points="427.2,800.1 267,800.1 340.2,730 500.2,730 	"/>
	<ellipse class="st0" cx="305.3" cy="361" rx="75.4" ry="69.7"/>
	<ellipse class="st0" cx="347.5" cy="486.6" rx="75.4" ry="69.7"/>
	<ellipse class="st0" cx="312.6" cy="617.8" rx="75.4" ry="69.7"/>
	<polygon class="st0" points="220.8,564.7 251.8,594.6 274.3,573.2 	"/>
	<polygon class="st0" points="241.1,494.3 281.1,478.6 282.8,512.9 	"/>
	<polygon class="st0" points="219.2,422.8 250.1,385.1 269.3,412.7 	"/>
</g>
<g id="Layer_1">
	<path class="st1" d="M308.7,692.3c-35.2,0-66.5-22-74.3-55.1c-3.9-16.4-1.5-33.6,6.7-48.9l-31.1-29.9l48.7,7.9
		c10.2-8.9,22.6-15.3,36.1-18.5c42.6-10.1,84.8,13.5,94.1,52.7c9.3,39.2-17.8,79.3-60.4,89.4l0,0
		C321.8,691.6,315.2,692.3,308.7,692.3z M229,568l20,19.2l-1.3,2.2c-8.3,14.4-10.9,30.9-7.2,46.4c8.5,35.8,47.3,57.3,86.5,48l0,0
		c39.2-9.3,64.2-46,55.7-81.7c-8.5-35.8-47.3-57.3-86.5-48c-13,3.1-24.9,9.3-34.5,18l-1.1,1L229,568z"/>
	<g>
		
			<rect x="81.6" y="583.9" transform="matrix(0.9543 -0.2988 0.2988 0.9543 -184.1971 54.0841)" class="st2" width="6.4" height="91.3"/>
	</g>
	<polygon class="st2" points="137,580.9 131.8,585 170.1,674.4 175.9,671.8 	"/>
	<g>
		<path class="st3" d="M156.6,521.6v-6.4c16.3,0,29.6-13.3,29.6-29.6s-13.3-29.6-29.6-29.6v-6.4c19.9,0,36,16.2,36,36
			S176.4,521.6,156.6,521.6z"/>
	</g>
	<g>
		<path class="st3" d="M156.6,557v-6.4c35.8,0,65-29.2,65-65s-29.2-65-65-65v-6.4c39.4,0,71.4,32,71.4,71.4S195.9,557,156.6,557z"/>
	</g>
	<path class="st2" d="M65.5,494.5c0-5-2.1-9-6-11.6c3.9-2.6,6-6.7,6-11.6c0-6.1-3.1-10.7-8.8-13.1c-3.9-1.7-7.7-1.7-8.1-1.7H28.2
		c-0.4,0-4.2,0-8.1,1.7c-5.7,2.4-8.8,7.1-8.8,13.1c0,4.4,1.7,8.1,4.7,10.7c-5,2.5-7.8,7-7.8,12.7c0,5.9,2.9,10.4,8.3,12.9
		c-2.8,2.6-4.3,6.1-4.3,10.3c0,6.1,3.1,10.7,8.8,13.1c1,0.4,1.9,0.7,2.8,1c-2.1,2.5-3.3,5.6-3.3,9.3c0,6.1,3.1,10.7,8.8,13.1
		c3.9,1.7,7.7,1.7,8.1,1.7h11.3c0.4,0,4.2,0,8.1-1.7c5.7-2.4,8.8-7.1,8.8-13.1c0-5-2.1-9-6-11.6c3.9-2.6,6-6.7,6-11.6
		c0-5-2.1-9.1-6.1-11.7C63.3,503.5,65.5,499.5,65.5,494.5z M28.2,462.7h20.5c0,0,2.8,0,5.6,1.2c3.3,1.4,4.9,3.7,4.9,7.3
		c0,7.4-7.8,8.3-10,8.4c-0.2,0-0.4,0-0.5,0h-7l0,0h-4.5v0h-4.5v0h-4.4c-1.1,0-10.5-0.3-10.5-8.5C17.7,463,27.1,462.7,28.2,462.7z
		 M14.7,494.5c0-8.1,9.4-8.5,10.5-8.5h18.1l0.8,0h4.6c0.1,0,0.2,0,0.4,0c0.9,0.1,3,0.3,5.2,1.2c3.3,1.4,4.9,3.7,4.9,7.3
		c0,8.1-9.4,8.5-10.5,8.5h-3.9l-3.1,0.1l-5.5-0.1H29c-0.1,0-0.6,0-1.4,0.1h-2.5c0,0-2.8,0-5.6-1.2C16.2,500.3,14.7,498,14.7,494.5z
		 M18.6,517.7c0-6.7,6.4-8.1,9.2-8.4h14l1.5,0h5.4c1.1,0,10.5,0.3,10.5,8.5c0,7.2-7.4,8.3-9.8,8.4c-0.3,0-0.6,0-0.6,0h-1.9v0H29
		c0,0-2.8,0-5.6-1.2C20.1,523.6,18.6,521.3,18.6,517.7z M48.6,549.5H37.3c-1.1,0-10.5-0.3-10.5-8.5c0-7,6.9-8.2,9.5-8.4h12.2
		c0.1,0,0.3,0,0.6,0c2.4,0.2,9.8,1.2,9.8,8.4C59.1,549.2,49.7,549.5,48.6,549.5z"/>
	<path class="st2" d="M127.2,479c-0.2-0.9-0.3-2.2-0.5-3.8c-1.1-8.1-2.2-15.8-4.6-19.9c-4.1-7.3-20.8-22.4-22.6-24.1l-0.1-0.1
		c-8.8-7.2-13.3-8.8-20-7.4c-6.2,1.3-10.7,5.5-12,11.1c-1.3,5.5,0.8,11.3,5.2,14.8c8.6,7.5,18.2,16.9,19.3,19.5l5.9-2.5
		c-2.2-5.2-17.9-19.1-21-21.8l-0.1-0.1c-2.5-2-3.7-5.3-3-8.4c0.7-3.2,3.3-5.5,7.1-6.3c3.6-0.8,6-0.9,14.6,6c5,4.5,18.3,17,21.3,22.4
		c1.9,3.4,3.1,12.3,3.8,17.6c0.2,1.6,0.4,3,0.6,4c0.5,2.9-0.3,27.5-1.1,46.3l6.4,0C126.8,511.5,127.8,483,127.2,479z"/>
	<path class="st2" d="M76.6,444.7"/>
	<g>
		<path class="st3" d="M129,522.9h-2.7c0,1.2-0.1,2.3-0.1,3.3l-6.4,0c0-1.1,0.1-2.2,0.1-3.3H94.6c-2.1-1.9-6-14.7-6-37.7
			c0-7.5,0.4-13.9,1-19.2c-1.4-1.6-3.4-3.6-5.6-5.9c-1.2,7.2-1.8,15.9-1.8,25c0,11.1,0.9,21.7,2.7,29.6c2.1,9.9,5.1,14.5,9.4,14.5
			H129c2.3,0,4.2,1.9,4.2,4.2v45.1c0,2.3-1.9,4.2-4.2,4.2H71.2c-6.4,0-13.1-10.1-18.3-27.3c-2.2,0.5-3.9,0.5-4.2,0.5h-2.3
			c0.1,0.5,0.3,1,0.4,1.4c6.2,20.8,14.7,31.8,24.4,31.8H129c5.8,0,10.6-4.7,10.6-10.6v-45.1C139.6,527.7,134.9,522.9,129,522.9z"/>
		<path class="st3" d="M129,381.3H71.2c-9.7,0-18.2,11-24.4,31.8c-3.7,12.3-6.3,27.1-7.7,43.3h6.4c3.7-41.6,15.2-68.7,25.7-68.7H129
			c2.3,0,4.2,1.9,4.2,4.2v45.1c0,2.3-1.9,4.2-4.2,4.2h-19.1c2.1,2.1,4.2,4.3,6.1,6.4h13c5.8,0,10.6-4.7,10.6-10.6v-45.1
			C139.6,386,134.9,381.3,129,381.3z"/>
	</g>
	<g>
		<path class="st3" d="M129,589.1h-26v-6.4h26c2.3,0,4.2-1.9,4.2-4.2v-45.1c0-2.3-1.9-4.2-4.2-4.2H94.4c-4.2,0-7.2-4.6-9.4-14.5
			c-1.7-7.9-2.7-18.5-2.7-29.6h6.4c0,23,3.9,35.8,6,37.7H129c5.8,0,10.6,4.7,10.6,10.6v45.1C139.6,584.4,134.9,589.1,129,589.1z"/>
	</g>
	<g>
		<g>
			<path class="st4" d="M309.6,662.1c-7.3,0-13.6-6-14-13.3c-0.4-7.5,5.7-14.2,13.3-14.5c7.5-0.3,14.1,5.7,14.5,13.2l0,0
				c0.4,7.6-5.7,14.3-13.2,14.7C310.1,662.1,309.8,662.1,309.6,662.1z M309.6,640.6c-0.1,0-0.2,0-0.3,0c-4,0.2-7.4,3.9-7.2,7.9
				c0.2,4.1,3.9,7.4,7.9,7.2c4-0.2,7.3-3.9,7.1-8C316.9,643.9,313.4,640.6,309.6,640.6z M297.9,629.9l-1.2-24.9l8.5-0.4
				c4.9-0.2,7.4-1.1,8.6-1.8c1.5-0.8,1.5-1.6,1.5-2.3c-0.1-3-6.5-3.1-10.3-3c-2.4,0.1-5.1,0.4-7.1,0.7l-3.4,0.6l-2.4-22.5l2.9-0.5
				c3.4-0.6,7.5-1.1,11.6-1.3c9.4-0.5,17.5,1.4,23.2,5.3c5.9,4.1,9.3,10.2,9.6,17.8c0.6,12.3-6.5,21.2-20.1,25.3l-0.1,6L297.9,629.9
				z M303.4,611l0.6,12.2l9-0.4l0.1-4.8l2.4-0.6c8.4-2.1,18.2-7.1,17.6-19.4c-0.3-5.5-2.6-9.8-6.9-12.8c-4.6-3.2-11.3-4.6-19.3-4.2
				c-2.7,0.1-5.4,0.4-7.8,0.7l1,9.9c1.5-0.2,3-0.3,4.5-0.4c7.6-0.3,16.6,1,17,9c0.2,3.4-1.5,6.3-4.7,8.2c-2.7,1.5-6.4,2.4-11.4,2.6
				L303.4,611z"/>
		</g>
	</g>
	<g>
		<g>
			<rect x="310.5" y="460" class="st5" width="71.1" height="6.4"/>
		</g>
		<g>
			<rect x="310.5" y="485.5" class="st5" width="71.1" height="6.4"/>
		</g>
		<g>
			<rect x="310.5" y="511" class="st5" width="71.1" height="6.4"/>
		</g>
	</g>
	<g>
		<path class="st6" d="M303.1,258.8c-22.6,0-41,18.4-41,41c0,7.8,2.2,15.5,6.5,22.1l17.5,32.2c0.6,1,1.6,1.7,2.8,1.7h27.9
			c1.2,0,2.2-0.6,2.8-1.6l18.1-32.2c0,0,0,0,0,0c4.2-6.6,6.5-14.2,6.5-22.1C344.1,277.2,325.7,258.8,303.1,258.8z M332.1,318.6
			c-0.1,0.1-0.2,0.3-0.2,0.4l-17.1,30.4h-8.6v-28.9c6.3-1.5,11-7.1,11-13.8h-6.4c0,4.3-3.5,7.8-7.8,7.8c-4.3,0-7.8-3.5-7.8-7.8h-6.4
			c0,6.7,4.7,12.4,11,13.8v28.9h-9.2L274.3,319c-0.1-0.1-0.1-0.3-0.2-0.4c-3.6-5.6-5.6-12.1-5.6-18.8c0-19.1,15.5-34.6,34.6-34.6
			c19.1,0,34.6,15.5,34.6,34.6C337.7,306.5,335.8,313,332.1,318.6z"/>
		<path class="st6" d="M317.3,358.4h-28.4c-1.8,0-3.2,1.4-3.2,3.2v10c0,1.8,1.4,3.2,3.2,3.2h28.4c1.8,0,3.2-1.4,3.2-3.2v-10
			C320.5,359.9,319.1,358.4,317.3,358.4z M314.1,368.4h-22v-3.6h22V368.4z"/>
		<path class="st6" d="M314.1,377.5h-22c-1.8,0-3.2,1.4-3.2,3.2c0,7.8,6.4,14.2,14.2,14.2c7.8,0,14.2-6.4,14.2-14.2
			C317.3,378.9,315.9,377.5,314.1,377.5z M303.1,388.5c-3.2,0-5.9-1.9-7.2-4.6h14.3C309,386.6,306.3,388.5,303.1,388.5z"/>
		<rect x="299.9" y="221.7" class="st6" width="6.4" height="21"/>
		
			<rect x="330.4" y="241.8" transform="matrix(0.7071 -0.7071 0.7071 0.7071 -73.3518 312.7971)" class="st6" width="21" height="6.4"/>
		
			<rect x="262.7" y="234.4" transform="matrix(0.7071 -0.7071 0.7071 0.7071 -95.3219 259.7467)" class="st6" width="6.4" height="21"/>
	</g>
	<path class="st4" d="M617.9,97.6h-204c-3.8,0-6.8,3.1-6.8,6.8v135h217.6v-135C624.7,100.7,621.6,97.6,617.9,97.6z M616.7,104
		l-100.8,74.7L415.1,104H616.7z M413.4,104.4c0-0.3,0.2-0.5,0.5-0.5h0.4l-0.8,1.1V104.4z M413.4,110.7l80.8,59.9l-80.8,59.9V110.7z
		 M420.7,233l78.9-58.5l16.3,12.1l16.3-12.1L611,233H420.7z M618.3,230.5l-80.8-59.9l80.8-59.9V230.5z M618.3,105.1l-0.8-1.1h0.4
		c0.3,0,0.5,0.2,0.5,0.5V105.1z"/>
	<g>
		<path class="st7" d="M346.3,162.5c0,6,1.1,8.7,4.3,8.7c3.7,0,6.6-3.3,6.6-12.1c0-15-11.4-25.8-27.1-25.8S303,144.5,303,160.8
			c0,16.5,11.4,27.7,27.1,27.7c6.6,0,12.5-2,17.7-5.5l4.1,5.8c-6.4,4.6-13.8,6.9-21.8,6.9c-20.6,0-35.2-14.8-35.2-34.9
			c0-19.9,14.6-34.6,35.2-34.6c20.6,0,35.2,14.5,35.2,32.9c0,11-5.4,19.1-15.1,19.1c-5.5,0-8.7-2.4-10.3-5.5
			c-2.4,3.2-6,5.2-11.2,5.2c-9.6,0-16.6-7.2-16.6-17.2c0-9.9,7.1-17.2,16.3-17.2c4.6,0,7.9,1.7,10.2,4.4v-3.6h7.6V162.5z M320,160.8
			c0,5.5,3.6,10,9.5,10c5.7,0,9.5-4.3,9.5-10c0-5.7-3.8-10-9.5-10C323.7,150.8,320,155.3,320,160.8z"/>
	</g>
	<g>
		<g>
			<rect x="319.4" y="777.5" class="st3" width="97.5" height="6.4"/>
		</g>
		<g>
			<rect x="332.4" y="762" class="st3" width="97.5" height="6.4"/>
		</g>
		<g>
			<rect x="349.5" y="746.4" class="st3" width="97.5" height="6.4"/>
		</g>
	</g>
	<g>
		<g>
			<path class="st3" d="M424.3,751.9c-0.9,0-1.7-0.2-2.5-0.7c-1.6-1-2.4-2.8-2.2-4.6l2.2-15.2c0.1-0.8,0.4-1.6,0.9-2.4l46.6-74.5
				l18.7,11.7l-46.6,74.5c-0.5,0.7-1,1.3-1.8,1.8l-12.7,8.6C426.2,751.6,425.3,751.9,424.3,751.9z M428.2,732.4l-1.6,11.3l9.5-6.4
				l43.2-69.1l-7.8-4.9L428.2,732.4z"/>
		</g>
		<g>
			<path class="st3" d="M484.8,664.5l-5.4-3.4l2.8-4.5c0.3-0.5,0.3-1,0.2-1.2c-0.1-0.2-0.2-0.7-0.7-1c-0.5-0.3-1-0.3-1.2-0.2
				c-0.2,0.1-0.7,0.2-1,0.7l-2.8,4.5l-5.4-3.4l2.8-4.5c1.1-1.8,2.9-3.1,5-3.5c2.1-0.5,4.2-0.1,6,1c1.8,1.1,3.1,2.9,3.5,5
				c0.5,2.1,0.1,4.2-1,6L484.8,664.5z"/>
		</g>
		<g>
			<polygon class="st3" points="468.3,716.1 462.9,712.7 482.6,681.3 479.7,679.5 483.1,674.1 491.3,679.2 			"/>
		</g>
	</g>
	<path class="st3" d="M450.8,725.6l-4,6.4h46.4l-68.9,66.3H273.2l68.9-66.3h79.7l0.1-0.6c0.1-0.8,0.4-1.6,0.9-2.4l2.1-3.4h-85.4
		l-82.1,79h169.6l82.1-79H450.8z"/>
	<g>
		<path class="st5" d="M448.3,345.6l-27-27c-3.4-3.4-5.2-7.9-5.2-12.7c0-4.8,1.9-9.3,5.2-12.7c3.4-3.4,7.9-5.2,12.7-5.2
			c4.8,0,9.3,1.9,12.7,5.2l1.7,1.7l1.7-1.7c3.4-3.4,7.9-5.2,12.7-5.2c0,0,0,0,0,0c4.8,0,9.3,1.9,12.7,5.2l0,0
			c3.4,3.4,5.2,7.9,5.2,12.7c0,4.8-1.9,9.3-5.2,12.7L448.3,345.6z M434,294.4c-3.1,0-6,1.2-8.2,3.4c-2.2,2.2-3.4,5.1-3.4,8.2
			c0,3.1,1.2,6,3.4,8.2l22.5,22.5l22.5-22.5c2.2-2.2,3.4-5.1,3.4-8.2c0-3.1-1.2-6-3.4-8.2l0,0c-2.2-2.2-5.1-3.4-8.2-3.4
			s-6,1.2-8.2,3.4l-6.2,6.2l-6.2-6.2C440,295.6,437.1,294.4,434,294.4z"/>
	</g>
	<g>
		<path class="st6" d="M600.4,318.6c-1.4,0-2.8-0.3-4.1-1l-8.2-4.3l-8.2,4.3c-1.3,0.7-2.7,1-4.1,1c-1.9,0-3.7-0.6-5.2-1.7
			c-2.7-2-4.1-5.3-3.5-8.6l1.6-9.1l-6.6-6.5c-2.4-2.4-3.3-5.8-2.2-9c1-3.2,3.8-5.5,7.1-6l9.1-1.3l4.1-8.3c1.5-3,4.5-4.9,7.9-4.9
			c3.4,0,6.4,1.9,7.9,4.9l4.1,8.3l9.1,1.3c3.3,0.5,6.1,2.8,7.1,6c1,3.2,0.2,6.7-2.2,9l-6.6,6.5l1.6,9.1c0.6,3.3-0.8,6.6-3.5,8.6
			C604,318.1,602.2,318.6,600.4,318.6z M589.6,306.9l9.7,5.1c0.8,0.4,1.8,0.4,2.6-0.2c0.8-0.6,1.1-1.4,1-2.4l-1.8-10.8l0.9-2.8
			l7.8-7.6c0.7-0.7,0.9-1.6,0.6-2.5c-0.3-0.9-1-1.5-2-1.7l-10.8-1.6l-2.4-1.7l-4.8-9.8c-0.4-0.8-1.2-1.4-2.2-1.4
			c-0.9,0-1.8,0.5-2.2,1.4l-4.8,9.8l-2.4,1.7l-10.8,1.6c-0.9,0.1-1.7,0.8-2,1.7c-0.3,0.9-0.1,1.8,0.6,2.5l7.8,7.6l0.9,2.8l-1.8,10.8
			c-0.2,0.9,0.2,1.8,1,2.4c0.8,0.5,1.7,0.6,2.6,0.2l9.7-5.1H589.6z"/>
	</g>
	<g>
		<path class="st6" d="M191.5,217c-1.4,0-2.8-0.3-4.1-1l-8.2-4.3l-8.2,4.3c-1.3,0.7-2.7,1-4.1,1c-1.9,0-3.7-0.6-5.2-1.7
			c-2.7-2-4.1-5.3-3.5-8.6l1.6-9.1l-6.6-6.5c-2.4-2.4-3.3-5.8-2.2-9c1-3.2,3.8-5.5,7.1-6l9.1-1.3l4.1-8.3c1.5-3,4.5-4.9,7.9-4.9
			c3.4,0,6.4,1.9,7.9,4.9l4.1,8.3l9.1,1.3c3.3,0.5,6.1,2.8,7.1,6c1,3.2,0.2,6.7-2.2,9l-6.6,6.5l1.6,9.1c0.6,3.3-0.8,6.6-3.5,8.6
			C195.2,216.5,193.4,217,191.5,217z M180.7,205.3l9.7,5.1c0.8,0.4,1.8,0.4,2.6-0.2c0.8-0.6,1.1-1.4,1-2.4l-1.8-10.8l0.9-2.8
			l7.8-7.6c0.7-0.7,0.9-1.6,0.6-2.5c-0.3-0.9-1-1.5-2-1.7l-10.8-1.6l-2.4-1.7l-4.8-9.8c-0.4-0.8-1.2-1.4-2.2-1.4s-1.8,0.5-2.2,1.4
			l-4.8,9.8l-2.4,1.7l-10.8,1.6c-0.9,0.1-1.7,0.8-2,1.7c-0.3,0.9-0.1,1.8,0.6,2.5l7.8,7.6l0.9,2.8l-1.8,10.8c-0.2,0.9,0.2,1.8,1,2.4
			c0.8,0.5,1.7,0.6,2.6,0.2l9.7-5.1H180.7z"/>
	</g>
	<g>
		<path class="st1" d="M577.8,566.2c0-10.3-8.4-18.6-18.6-18.6c-10.3,0-18.6,8.4-18.6,18.6h6.4c0-6.8,5.5-12.2,12.2-12.2
			s12.2,5.5,12.2,12.2H577.8z"/>
		<path class="st1" d="M614.8,554c6.8,0,12.2,5.5,12.2,12.2h6.4c0-10.3-8.4-18.6-18.6-18.6c-10.3,0-18.6,8.4-18.6,18.6h6.4
			C602.5,559.5,608,554,614.8,554z"/>
		<path class="st1" d="M696,502.9h-1.2c-0.3,0-0.5,0-0.8,0c0,0,0,0,0,0c-7.7-52.2-52.8-92.4-107.1-92.4
			c-54.3,0-99.4,40.2-107.1,92.4c0,0,0,0,0,0c-0.3,0-0.5,0-0.8,0h-1.2c-12.6,0-22.8,10.2-22.8,22.8v24c0,12.6,10.2,22.8,22.8,22.8
			h1.2c7.8,0,14.1-6.3,14.1-14.1V517c0-5.3-2.9-9.8-7.1-12.3c6.9-49.5,49.5-87.8,100.9-87.8c51.4,0,94,38.3,100.9,87.8
			c-4.3,2.4-7.1,7-7.1,12.3v41.3c0,0.1,0,0.2,0,0.2c0,0,0,0,0,0c-6.2,14.5-15.6,27.3-27.4,37.4l15.7-59.6c9.2-35-7.4-71.5-40.5-88.8
			c-12.6-6.6-27-10-41.5-10c-14.5,0-28.9,3.5-41.5,10c-33.1,17.2-49.8,53.7-40.6,88.8l21.2,80.4c6.9,26.3,32,44.6,60.9,44.6
			c28.9,0,53.9-18.4,60.9-44.6l2.8-10.6c13.9-10.2,25.4-23.6,33.2-39.2c0,0,0,0,0,0c2.6,3.3,6.6,5.3,11,5.3h1.2
			c12.6,0,22.8-10.2,22.8-22.8v-24C718.8,513.1,708.6,502.9,696,502.9z M486.8,558.4c0,4.3-3.5,7.7-7.7,7.7h-1.2
			c-9,0-16.4-7.4-16.4-16.4v-24c0-9,7.4-16.4,16.4-16.4h1.2c4.3,0,7.7,3.5,7.7,7.7V558.4z M548.4,453.3c11.7-6.1,25-9.3,38.6-9.3
			s26.9,3.2,38.6,9.3c21.8,11.3,35.9,31.7,39,54.2c-9.9,5.5-28.3,13.1-51.7,10.7c-26.1-2.8-43.6-16.4-51.7-24.3l-4.4-4.3l-0.9,6.1
			c-0.8,5-3.8,17.5-15.3,27.1c-11.2,9.3-23.9,10.1-29.8,9.9C503.3,501.1,518.6,468.8,548.4,453.3z M641.7,615.2
			c-6.2,23.5-28.7,39.9-54.7,39.9s-48.5-16.4-54.7-39.9L512.2,539c0,0,0,0,0.1,0c7.8,0,20.5-1.8,32.2-11.4
			c9.9-8.2,14.4-18.4,16.3-25.4c9.9,8.5,27.2,19.8,51.4,22.3c23.3,2.5,42-4.4,53-10.1c0.3,6.7-0.5,13.6-2.3,20.4L645,602.4
			c-15.7,10.9-34.6,17.6-55,18.2c-1.4-4.3-5.4-7.4-10.2-7.4c-5.9,0-10.7,4.8-10.7,10.7s4.8,10.7,10.7,10.7c4.9,0,9-3.3,10.3-7.7
			c19.1-0.6,37.1-6.1,52.5-15.4L641.7,615.2z M682,564.2c0,0.1,0.1,0.2,0.1,0.3C682.1,564.4,682,564.3,682,564.2z M681.2,561.9
			c0,0.1,0,0.2,0.1,0.3C681.2,562.1,681.2,562,681.2,561.9z M681.5,563.1c0,0.1,0.1,0.2,0.1,0.3
			C681.6,563.3,681.6,563.2,681.5,563.1z M712.4,549.7c0,9-7.4,16.4-16.4,16.4h-1.2c-4.3,0-7.7-3.5-7.7-7.7V517
			c0-4.3,3.5-7.7,7.7-7.7h1.2c9,0,16.4,7.4,16.4,16.4V549.7z"/>
	</g>
	<g>
		<path class="st2" d="M138.5,333.4h-6.4c0-0.5,0-1.2,0-2c-0.1-3.6-1.3-10.5-7-16.2c-5.9-5.8-8.8-6.8-10.2-7c-0.4,0-0.7,0-1,0
			l-0.1-6.4c0.3,0,0.7,0,1,0c1.5-0.1,4.4-1.1,10.3-7c5.7-5.7,6.8-12.6,7-16.2c0-0.8,0-1.5,0-2h6.4c0,0.5,0,1.2,0,2
			c0.1,3.6,1.3,10.5,7,16.2c5.9,5.8,8.8,6.8,10.2,7c0.4,0,0.7,0,1,0l0.1,6.4c-0.3,0-0.7,0-1,0c-1.5,0.1-4.4,1.1-10.3,7
			c-5.7,5.7-6.8,12.6-7,16.2C138.6,332.2,138.6,332.9,138.5,333.4z M123.1,305c1.9,1.3,4,3.1,6.6,5.6c2.5,2.5,4.4,5.3,5.7,7.9
			c1.3-2.7,3.1-5.4,5.7-7.9c2.5-2.5,4.7-4.3,6.6-5.7c-1.9-1.3-4-3.1-6.6-5.6c-2.5-2.5-4.4-5.3-5.7-7.9c-1.3,2.7-3.1,5.4-5.7,7.9
			C127.2,301.9,125,303.7,123.1,305z"/>
	</g>
	<g>
		<path class="st2" d="M227.8,101.6h-6.4c0-0.5,0-1.2,0-2c-0.1-3.6-1.3-10.5-7-16.2c-5.9-5.8-8.8-6.8-10.2-7c-0.4,0-0.7,0-1,0
			l-0.1-6.4c0.3,0,0.7,0,1,0c1.5-0.1,4.4-1.1,10.3-7c5.7-5.7,6.8-12.6,7-16.2c0-0.8,0-1.5,0-2h6.4c0,0.5,0,1.2,0,2
			c0.1,3.6,1.3,10.5,7,16.2c5.9,5.8,8.8,6.8,10.2,7c0.4,0,0.7,0,1,0l0.1,6.4c-0.3,0-0.7,0-1,0c-1.5,0.1-4.4,1.1-10.3,7
			c-5.7,5.7-6.8,12.6-7,16.2C227.8,100.5,227.8,101.1,227.8,101.6z M212.4,73.3c1.9,1.3,4,3.1,6.6,5.6c2.5,2.5,4.4,5.3,5.7,7.9
			c1.3-2.7,3.1-5.4,5.7-7.9c2.5-2.5,4.7-4.3,6.6-5.7c-1.9-1.3-4-3.1-6.6-5.6c-2.5-2.5-4.4-5.3-5.7-7.9c-1.3,2.7-3.1,5.4-5.7,7.9
			C216.4,70.1,214.3,72,212.4,73.3z"/>
	</g>
	<g>
		<path class="st2" d="M705,146.2l-6.4,0c0-0.5,0-1.2,0-2c-0.1-3.6-1.3-10.4-7-16.2c-5.9-5.8-8.8-6.8-10.2-7c-0.4,0-0.7,0-1,0
			l-0.1-6.4c0.3,0,0.7,0,1,0c1.5-0.1,4.4-1.1,10.3-7c5.7-5.7,6.8-12.6,7-16.2c0-0.8,0-1.5,0-2l6.4,0c0,0.5,0,1.2,0,2
			c0.1,3.6,1.3,10.5,7,16.2c5.9,5.8,8.8,6.8,10.2,7c0.4,0,0.7,0,1,0l0.1,6.4c-0.3,0-0.7,0-1,0c-1.5,0.1-4.4,1.1-10.3,7
			c-5.7,5.7-6.8,12.6-7,16.2C705,145.1,705,145.7,705,146.2z M689.6,117.9c1.9,1.3,4,3.1,6.6,5.6c2.5,2.5,4.4,5.3,5.7,7.9
			c1.3-2.7,3.1-5.4,5.7-7.9c2.5-2.5,4.7-4.3,6.6-5.7c-1.9-1.3-4-3.1-6.6-5.6c-2.5-2.5-4.4-5.3-5.7-7.9c-1.3,2.7-3.1,5.4-5.7,7.9
			C693.6,114.7,691.4,116.6,689.6,117.9z"/>
	</g>
	<g>
		<path class="st2" d="M572.9,772.7l-6.4,0c0-0.5,0-1.2,0-2c-0.1-3.6-1.3-10.4-7-16.2c-5.9-5.8-8.8-6.8-10.2-7c-0.4,0-0.7,0-1,0
			l-0.1-6.4c0.3,0,0.7,0,1,0c1.5-0.1,4.4-1.1,10.3-7c5.7-5.7,6.8-12.6,7-16.2c0-0.8,0-1.5,0-2l6.4,0c0,0.5,0,1.2,0,2
			c0.1,3.6,1.3,10.5,7,16.2c5.9,5.8,8.8,6.8,10.2,7c0.4,0,0.7,0,1,0l0.1,6.4c-0.3,0-0.7,0-1,0c-1.5,0.1-4.4,1.1-10.3,7
			c-5.7,5.7-6.8,12.6-7,16.2C573,771.5,573,772.2,572.9,772.7z M557.5,744.3c1.9,1.3,4,3.1,6.5,5.6c2.5,2.5,4.4,5.3,5.7,7.9
			c1.3-2.7,3.1-5.4,5.7-7.9c2.5-2.5,4.7-4.3,6.5-5.7c-1.9-1.3-4-3.1-6.5-5.6c-2.5-2.5-4.4-5.3-5.7-7.9c-1.3,2.7-3.1,5.4-5.7,7.9
			C561.6,741.2,559.4,743,557.5,744.3z"/>
	</g>
	<g>
		<path class="st2" d="M182.2,790.5l-6.4,0c0-0.5,0-1.2,0-2c-0.1-3.6-1.3-10.4-7-16.2c-5.9-5.8-8.8-6.8-10.2-7c-0.4,0-0.7,0-1,0
			l-0.1-6.4c0.3,0,0.7,0,1,0c1.5-0.1,4.4-1.1,10.3-7c5.7-5.7,6.8-12.6,7-16.2c0-0.8,0-1.5,0-2l6.4,0c0,0.5,0,1.2,0,2
			c0.1,3.6,1.3,10.5,7,16.2c5.9,5.8,8.8,6.8,10.2,7c0.4,0,0.7,0,1,0l0.1,6.4c-0.3,0-0.7,0-1,0c-1.5,0.1-4.4,1.1-10.3,7
			c-5.7,5.7-6.8,12.6-7,16.2C182.2,789.3,182.2,790,182.2,790.5z M166.7,762.1c1.9,1.3,4,3.1,6.6,5.6c2.5,2.5,4.4,5.3,5.7,7.9
			c1.3-2.7,3.1-5.4,5.7-7.9c2.5-2.5,4.7-4.3,6.6-5.7c-1.9-1.3-4-3.1-6.6-5.6c-2.5-2.5-4.4-5.3-5.7-7.9c-1.3,2.7-3.1,5.4-5.7,7.9
			C170.8,759,168.6,760.8,166.7,762.1z"/>
	</g>
	<g>
		<g>
			<g>
				<g>
					
						<rect x="507.3" y="366.8" transform="matrix(0.8655 -0.501 0.501 0.8655 -117.3342 307.0816)" class="st3" width="11.5" height="10.5"/>
				</g>
			</g>
		</g>
		<g>
			<g>
				<g>
					
						<rect x="546.6" y="366.2" transform="matrix(0.5011 -0.8654 0.8654 0.5011 -46.6234 663.1347)" class="st3" width="10.5" height="11.5"/>
				</g>
			</g>
		</g>
		<g>
			<g>
				<g>
					<rect x="527.2" y="332.2" class="st3" width="10.5" height="11.5"/>
				</g>
			</g>
		</g>
	</g>
	<g>
		<g>
			<g>
				<g>
					
						<rect x="678.7" y="691.7" transform="matrix(0.8655 -0.501 0.501 0.8655 -257.0413 436.6477)" class="st6" width="11.5" height="10.5"/>
				</g>
			</g>
		</g>
		<g>
			<g>
				<g>
					
						<rect x="718" y="691.1" transform="matrix(0.5011 -0.8654 0.8654 0.5011 -242.2867 973.5311)" class="st6" width="10.5" height="11.5"/>
				</g>
			</g>
		</g>
		<g>
			<g>
				<g>
					<rect x="698.6" y="657.1" class="st6" width="10.5" height="11.5"/>
				</g>
			</g>
		</g>
	</g>
	<g>
		<path class="st2" d="M439.1,646.3l-6.4,0c0-0.5,0-1.2,0-2c-0.1-3.6-1.3-10.4-7-16.2c-5.9-5.8-8.8-6.8-10.2-7c-0.4,0-0.7,0-1,0
			l-0.1-6.4c0.3,0,0.7,0,1,0c1.5-0.1,4.4-1.1,10.3-7c5.7-5.7,6.8-12.6,7-16.2c0-0.8,0-1.5,0-2l6.4,0c0,0.5,0,1.2,0,2
			c0.1,3.6,1.3,10.5,7,16.2c5.9,5.8,8.8,6.8,10.2,7c0.4,0,0.7,0,1,0l0.1,6.4c-0.3,0-0.7,0-1,0c-1.5,0.1-4.4,1.1-10.3,7
			c-5.7,5.7-6.8,12.6-7,16.2C439.2,645.1,439.2,645.8,439.1,646.3z M423.7,617.9c1.9,1.3,4,3.1,6.6,5.6c2.5,2.5,4.4,5.3,5.7,7.9
			c1.3-2.7,3.1-5.4,5.7-7.9c2.5-2.5,4.7-4.3,6.6-5.7c-1.9-1.3-4-3.1-6.6-5.6c-2.5-2.5-4.4-5.3-5.7-7.9c-1.3,2.7-3.1,5.4-5.7,7.9
			C427.8,614.8,425.6,616.6,423.7,617.9z"/>
	</g>
	<g>
		<path class="st1" d="M255.9,418.5c10.9,8,23.8,13.4,37.5,15.5c0.2,0,0.5,0.1,0.7,0.1c2.5-2,5.1-3.9,7.9-5.6
			c-2.5-0.1-5.1-0.4-7.6-0.8c-13.2-2-25.5-7.3-35.8-15.2l-1.2-0.9l-31.1,7.6l18.4-20.7l-1.4-2.1c-9.4-13.7-13.3-29.9-10.8-45.7
			c2.7-17.5,12.7-32.9,28.2-43.2c0.7-0.4,1.3-0.9,2-1.3c-0.3-2.1-0.5-4.2-0.5-6.3c0-0.3,0-0.5,0-0.8c-1.7,1-3.4,2-5.1,3.1
			c-17,11.3-28,28.2-31,47.6c-2.6,16.6,1.2,33.6,10.5,48.2l-28.6,32.3L255.9,418.5z"/>
		<path class="st1" d="M376.7,373c-2.8,17.8-13,32.7-27.5,42.7c3.3,0,6.5,0.3,9.6,0.6c12.6-10.7,21.5-25.3,24.1-42.3
			c4.7-30.3-11.7-59.5-38.9-74.6c0,0.2,0,0.3,0,0.5c0,2.2-0.2,4.4-0.5,6.6C366.9,320.6,380.8,346.3,376.7,373z"/>
	</g>
	<path class="st1" d="M348,415.6c-20.3,0-39.8,6.8-54.8,19.2c-14.4,11.9-23.6,28-25.8,45.4l-37.5,14.7l39.5,12.4
		c4.4,15.1,14.2,28.8,27.9,38.6c0.5,0.4,1.1,0.8,1.7,1.1c3.4-0.6,6.8-1,10.2-1.3c-2.8-1.5-5.5-3.2-8.1-5.1
		c-13-9.3-22.2-22.4-25.9-36.8l-0.4-1.7l-25.6-8l24.2-9.5l0.2-1.9c1.6-16.5,10.1-31.8,23.7-43c13.8-11.4,31.9-17.7,50.7-17.7
		c41.2,0,74.8,29.9,74.8,66.7c0,35.2-30.7,64-69.4,66.5c3,1.6,5.9,3.5,8.7,5.5c38.1-6,67.1-36,67.1-72
		C429.1,448.4,392.7,415.6,348,415.6z"/>
	<g>
		<path class="st5" d="M742.2,294.5l2.2,2.4c3.1-3.7,5.1-8,6-12.3c1.1-5.9-0.2-11.2-3.8-15c-3.5-3.8-8.8-5.5-14.7-4.7
			c-4.3,0.5-8.7,2.3-12.6,5.2l4.4,4.7c2.9-1.9,5.9-3.2,9-3.5c0.6-0.1,1.3-0.1,1.9-0.1c3.1,0,5.6,1,7.4,2.9l0,0
			c2.1,2.3,2.9,5.6,2.1,9.5c-0.6,3-2,6-4.1,8.7l-34-36.3c-2.2-2.3-5.1-3.7-8.3-3.8c-3.2-0.1-6.2,1-8.5,3.2l-4.1,3.9
			c-2.3,2.2-3.7,5.1-3.8,8.3c-0.1,2.2,0.5,4.4,1.5,6.2l-41.6,63.7l2.9-2.7l-13.7,12.9c-2.4,2.2-3.8,5.3-3.9,8.6
			c-0.1,3.3,1.1,6.4,3.3,8.8l14,15c2.3,2.4,5.3,3.7,8.3,3.8l36,38.4c1.8,1.9,4.2,3,6.8,3.1c0.1,0,0.2,0,0.3,0c2.5,0,4.9-0.9,6.7-2.6
			l3.1-2.9c3.9-3.7,4.1-9.9,0.4-13.8l-33.4-35.6l66.1-37.3c1.8,1.2,3.9,1.9,6.1,1.9c0.1,0,0.3,0,0.4,0c3,0,5.9-1.1,8.1-3.2l4.1-3.9
			l0,0c4.8-4.5,5-12,0.5-16.8L742.2,294.5z M634.6,360.6c-1.1-1.2-1.7-2.7-1.6-4.2c0.1-1.6,0.7-3,1.9-4.1l9.1-8.5l22.1,23.6
			l-9.1,8.5c-2.4,2.2-6.1,2.1-8.4-0.3L634.6,360.6z M653.9,383.8c-0.3,0-0.7,0-1,0C653.2,383.8,653.6,383.8,653.9,383.8z M657.2,383
			c-0.2,0.1-0.4,0.2-0.7,0.2C656.7,383.2,657,383.1,657.2,383z M656.2,383.3c-0.3,0.1-0.6,0.2-0.9,0.2
			C655.6,383.5,655.9,383.4,656.2,383.3z M654.9,383.6c-0.2,0-0.5,0.1-0.7,0.1C654.5,383.7,654.7,383.7,654.9,383.6z M700.8,415
			l-3.1,2.9c-0.7,0.6-1.5,1-2.4,0.9c-0.9,0-1.7-0.4-2.4-1.1L659.3,382c-0.3,0.2-0.5,0.3-0.8,0.4c1-0.5,1.9-1.2,2.8-2l10.1-9.5
			l-3.9,3.6l33.4,35.6C702.3,411.6,702.2,413.8,700.8,415z M657.6,382.9c0.2-0.1,0.3-0.1,0.5-0.2
			C657.9,382.7,657.8,382.8,657.6,382.9z M648,338.8l39.1-59.9l46.4,49.5l-62.3,35.2l3.8,4.1L648,338.8z M752.8,323.1l-4.1,3.9
			c-1.1,1-2.5,1.5-4,1.5c-0.4,0-0.8-0.1-1.2-0.2l-55.8-59.5c-0.1-0.4-0.1-0.8-0.1-1.2c0-1.5,0.7-2.8,1.7-3.9l4.1-3.9
			c1-1,2.4-1.5,3.8-1.5c0.1,0,0.1,0,0.2,0c1.5,0,2.8,0.7,3.9,1.7l51.7,55.1C755.1,317.6,755,321.1,752.8,323.1z"/>
		
			<rect x="750.3" y="251.6" transform="matrix(0.7295 -0.684 0.684 0.7295 31.8342 590.063)" class="st5" width="23.2" height="6.4"/>
		
			<rect x="777" y="283.1" transform="matrix(3.208844e-02 -0.9995 0.9995 3.208844e-02 460.5742 1065.0271)" class="st5" width="6.4" height="23.2"/>
		
			<rect x="712.1" y="231.3" transform="matrix(3.208844e-02 -0.9995 0.9995 3.208844e-02 466.1124 950.2816)" class="st5" width="23.2" height="6.4"/>
	</g>
</g>
</svg>
